<svg xmlns="http://www.w3.org/2000/svg" xmlns:xlink="http://www.w3.org/1999/xlink" viewBox="0 0 484.559 350.482"><path d="M186.8 83.967s45.687-9.054 71.187-27.877c17.1-12.625 33.763-29.742 45.546-56.09L367.8 23.346l28.711 5.927c-2.709 32.491-40.568 78.9-55.268 89.324-30.751 21.812-58.623 38.38-58.623 38.38s-42.352-25.454-95.82-73.01Z" fill="#dbecfd"/><path d="M352.95 68.664c-23.4-5.688-48.631-17.263-56.787-21.162q-2.214 2.431-4.485 4.7c5.472 2.688 31.748 15.26 57.395 21.863q1.988-2.675 3.877-5.401zm10.063-16.611c-22.1-5.318-45.843-15.593-54.93-19.719q-1.788 2.647-3.646 5.135c8.168 3.765 32.2 14.382 55.518 20.2q1.625-2.813 3.058-5.616zM338.4 87.386A325.032 325.032 0 0 1 280.071 62.6q-2.648 2.136-5.319 4.115a333.2 333.2 0 0 0 59.176 25.747q2.231-2.47 4.472-5.076z" fill="#bbdbfc"/><path d="M414.388 237.089v19.652h-194.53v-19.652z" fill="#105ead"/><g fill="#276db4"><path d="M369.272 237.09v19.652h-10.603V237.09zm-17.464 0v19.652h-10.603V237.09z"/><path d="M414.388 237.09h-194.53v6.782l194.53-6.782z" style="mix-blend-mode:multiply" opacity=".2"/></g><path fill="#e1ebf5" d="M408.929 255.368v-16.805h69.165v16.805z"/><path d="M408.928 237.185v19.555h-2.327a4.37 4.37 0 0 1-4.37-4.37v-10.812a4.37 4.37 0 0 1 4.37-4.37h2.327v-.003z" fill="#427fbe"/><g fill="#105ead"><path d="M410.878 237.188v19.555h-2.327a4.37 4.37 0 0 1-4.37-4.37v-10.815a4.37 4.37 0 0 1 4.37-4.37h2.327z"/><path d="M484.559 238.483v.158a1.3 1.3 0 0 1-1.3 1.3h-72.378v-2.749h72.382a1.3 1.3 0 0 1 1.3 1.3zm0 16.806v.158a1.3 1.3 0 0 1-1.3 1.3h-72.385v-2.749h72.39a1.3 1.3 0 0 1 1.295 1.291z"/></g><path d="M478.095 249.683v.371h-67.214v-.371zm-.001-2.843v.371H410.88v-.371zm-.001-2.845v.371h-67.214v-.371zm.001 7.109v.371H410.88v-.371zm0 1.424v.371H410.88v-.371zm0-4.266v.371H410.88v-.371zm.001-2.845v.371h-67.214v-.371zm-.002-2.844v.371h-67.214v-.371zm0-1.422v.371h-67.214v-.371z" fill="#9fbede"/><path d="M230.384 237.09v-51.148h170.985v51.148z" fill="#3297f5"/><path d="M291.656 237.089v-51.148h3.685v51.148zm-10.641.001v-51.148h3.685v51.148zm70.553 0v-51.148h3.685v51.148z" fill="#4ba3f6"/><ellipse cx="323.793" cy="211.602" rx="15.703" ry="16.942" fill="#67b2f8"/><path fill="#e5f0fd" d="M400.761 233.296v-44.435h70.083v44.435z"/><path d="M400.76 186.233v50.954h-.531c-2.497 0-4.522-2.025-4.522-4.522v-41.911c0-2.497 2.025-4.522 4.522-4.522h.531z" fill="#61aff7"/><g fill="#3a9bf5"><path d="M402.232 186.232v50.954h-.531c-2.497 0-4.522-2.025-4.522-4.522v-41.91c0-2.497 2.025-4.522 4.522-4.522h.531z"/><path d="M475.72 188.763v.2a2.53 2.53 0 0 1-2.53 2.53h-70.96v-5.255h70.96a2.53 2.53 0 0 1 2.53 2.525zm.002 45.603v.2a2.53 2.53 0 0 1-2.53 2.53h-70.96v-5.255h70.96a2.53 2.53 0 0 1 2.53 2.53z"/></g><path d="M470.843 220.355v.709h-68.612v-.709zm.001-8.786v.709h-68.612v-.709zm-.001-8.786v.709h-68.612v-.709zm.002 21.967v.709h-68.612v-.709zm-.002 4.394v.709h-68.612v-.709zm.002-13.181v.709h-68.612v-.709zm-.002-8.787v.709h-68.612v-.709zm.001-8.786v.709h-68.612v-.709zm-.001-4.394v.709h-68.612v-.709z" fill="#afd6fb"/><path fill="#6db2f8" d="M379.524 185.942H230.383v51.148l149.141-51.148z" class="J" opacity=".15"/><path d="M368.164 169.274v16.669h-77.785v-16.669z" fill="#29dca0"/><rect x="326.375" y="148.224" width="9.608" height="57.964" rx="2.833" transform="rotate(90 331.179 177.206)" fill="#14d997"/><path d="M301.487 179.729v-5.046c0-1.511 1.9-2.74 4.23-2.74h50.924c2.332 0 4.229 1.229 4.229 2.74v5.046c0 1.511-1.9 2.74-4.229 2.74h-50.924c-2.333 0-4.23-1.229-4.23-2.74Zm57.965-5.046c0-1-1.261-1.822-2.811-1.822h-50.924c-1.551 0-2.812.818-2.812 1.822v5.046c0 1 1.261 1.821 2.812 1.821h50.924c1.55 0 2.811-.817 2.811-1.821Z" fill="#bee0ff"/><path d="M227.249 185.942v-16.376h140.915v16.376z" fill="#29dca0"/><rect x="326.333" y="149.027" width="9.608" height="57.964" rx="2.833" transform="rotate(270 331.137 178.01)" fill="#48e1ae"/><path fill="#deecfc" d="M367.879 184.791v-14.074h49.03v14.074z"/><use xlink:href="#B" fill="#4ae2af"/><g fill="#53e3b3"><use xlink:href="#B" x="1.383"/><path d="M421.495 170.565v.306a1 1 0 0 1-1 1h-51.232v-2.3h51.232a1 1 0 0 1 1 .994zm-.003 14.073v.306a1 1 0 0 1-1 1H369.26v-2.3h51.234a1 1 0 0 1 .998.994z"/></g><path d="M416.909 180.031v.311h-47.647v-.311zm0-2.382v.311h-47.647v-.311zm-.001-2.382v.311h-47.647v-.311zm0 5.954v.311h-47.647v-.311zm0 1.191v.311h-47.647v-.311zm.002-3.573v.311h-47.647v-.311zm-.001-2.381v.311h-47.647v-.311zm-.001-2.382v.311h-47.647v-.311zm0-1.191v.311h-47.647v-.311z" fill="#a3f0d6"/><path fill="#0fa371" d="m227.249 169.566 192.368.137-69.246 16.613-123.122-.374v-16.376z" class="J" opacity=".15"/><path d="M364.492 133.101v37.377H194.644v-37.377z" fill="#ffd85f"/><rect x="208.807" y="141.4" width="21.779" height="19.876" rx="2.498" transform="rotate(90 219.697 151.339)" fill="#ffe182"/><path d="M348.809 133.101H194.644v18.817l154.165-18.817z" fill="#ffd85f" class="J" opacity=".15"/><path d="M260.042 145.402v5.497h-24.02v-5.497zm40.819 9.217v5.241h-64.839v-5.241z" fill="#ffe289"/><path fill="#fff3cd" d="M363.109 167.852V135.73h65.853v32.122z"/><use xlink:href="#C" fill="#ffe184"/><g fill="#ffda65"><use xlink:href="#C" x="1.383" y="-.001"/><use xlink:href="#D"/><use xlink:href="#D" x="2.706" y="32.12"/></g><g fill="#fff0c1"><use xlink:href="#E"/><use xlink:href="#E" y="-5.436"/><use xlink:href="#E" y="-10.871"/><use xlink:href="#E" y="2.718"/><use xlink:href="#E" y="5.438"/><use xlink:href="#E" y="-2.718"/><use xlink:href="#E" y="-8.154"/><use xlink:href="#E" x=".001" y="-13.59"/><use xlink:href="#E" x="-.001" y="-16.308"/></g><path fill="#59abf7" d="m100.356 113.055 23.687 171.336 201.036-28.11-30.975-136.533-193.748-6.693z"/><path d="m215.3 342.618-91.256-58.227a7.68 7.68 0 0 0 3.244 5.185l87.86 60.906Z" fill="#306bc4"/><path d="m215.299 342.618-91.256-58.227 201.036-28.11 117.677 33.297-227.457 53.04z" fill="#3297f5"/><path fill="#55a9f7" d="m202.767 313.371-46.096-29.412 157.136-21.972 46.044 18.39-157.084 32.994z"/><path d="m202.767 313.371-46.096-29.412 157.136-21.972.997.399-154.291 22.533 42.254 28.452z" fill="#306bc4"/><path fill="#439ff6" d="m287.843 319.16-25.819-16.474 58.597-12.072 30.249 13.679-63.027 14.867z"/><path d="m100.356 113.055 23.687 171.336a10.014 10.014 0 0 1-2.865-5.791L99.141 120.217a11.969 11.969 0 0 1 1.215-7.162Z" fill="#306bc4"/><path d="m104.916 124.845 21.558 145.904L318.4 245.825l-25.144-116.656-188.34-4.324z" fill="#fff"/><path d="m215.147 350.482.152-7.864 227.457-53.04-2.731 3.148a18.425 18.425 0 0 1-9.576 5.924Z" fill="#306bc4"/><path d="m289.2 144.83-172.813-1.1-.513-3.5a4.1 4.1 0 0 1 4.141-4.962l162.968 2.746c2.694.046 5.233 1.861 5.669 4.055Z" fill="#72e8c1"/><path d="m289.2 144.83-172.813-1.1L132.9 256.421a5.086 5.086 0 0 0 5.654 4.368l164.18-22.565c2.715-.373 4.562-2.454 4.126-4.647Z" fill="#d0f7ea"/><path d="M123.7 139.738a1.109 1.109 0 0 1-1.118 1.336 1.623 1.623 0 0 1-1.518-1.366 1.108 1.108 0 0 1 1.118-1.336 1.628 1.628 0 0 1 1.518 1.366Z" fill="#3297f5"/><path d="M129.571 139.805a1.1 1.1 0 0 1-1.117 1.326 1.621 1.621 0 0 1-1.519-1.356 1.1 1.1 0 0 1 1.118-1.326 1.625 1.625 0 0 1 1.518 1.356Z" fill="#ffd85f"/><path d="M249.465 188.975c2.261 17.044-12.086 33.947-32.061 38.162-19.984 4.439-37.9-8.812-40.01-30.006-2.1-21.419 12.288-39.347 32.117-39.636 19.819-.064 37.701 14.212 39.954 31.48Z" fill="#4ce2b0"/><path d="m203.015 214.053-2.036-19.914-2.028-20.126 18.292 8.701 18.325 7.806-16.256 11.213-16.297 12.32z" fill="#fff"/><path d="M12.708 208.658c-7.164.246-15.1-24.026-11.268-33.514 5.68-14.066 30.128-38.192 74.851-52.654 4.262 22.589 11.731 43.645 20.851 63.325s23.533 36.471 39.309 51.357c-23.4 14.029-41.7 37.75-49.913 63.764-12.316-9.562-24.325-20.048-36.641-29.61" fill="#bbdbfc"/><path d="m29.965 232.5 7.216-.021c0-.074.093-7.478 5.292-16.864 6.549-11.825 18.4-21.743 34.364-28.811q-1.517-3.266-2.958-6.587C30.31 199.472 29.958 231.134 29.965 232.5zm10.188 20.234 7.216-.038c0-.288.323-28.431 39.982-45.806q-1.916-3.082-3.656-6.273c-43.195 19.27-43.549 50.754-43.542 52.117zm12.111 17.221 7.216-.021c0-.074.093-7.478 5.292-16.864 6.643-12 18.747-22.023 35.058-29.109q-2.413-2.864-4.693-5.826c-42.537 19.294-42.88 50.465-42.873 51.82z" fill="#add4fb"/><path d="M86.538 300.936c-28.271-31.349-43.549-85.056-49.111-117.129-9.637 13.16-39.682 10.641-36.267-7.879-7.4 35.165 22.024 77.8 48.787 101.665 10.895 9.716 23.42 17.033 36.591 23.343Z" fill="#dbecfd"/><defs><path id="B" d="M367.879 169.566v16.376h-1.38c-.893 0-1.749-.355-2.381-.986s-.986-1.488-.986-2.381v-9.642c0-.893.355-1.749.986-2.381s1.488-.986 2.381-.986h1.38z"/><path id="C" d="M363.109 133.102v37.377h-.364c-2.421 0-4.383-1.962-4.383-4.383v-28.611c0-2.421 1.962-4.383 4.383-4.383h.364z"/><path id="D" d="M430.839 135.554v.351c0 1.354-1.098 2.452-2.452 2.452h-66.6v-5.255h66.6c1.354 0 2.452 1.098 2.452 2.452z"/><path id="E" d="M428.962 156.984v.709h-64.47v-.709z"/></defs></svg>