<svg id="Layer_1" data-name="Layer 1" xmlns="http://www.w3.org/2000/svg" xmlns:xlink="http://www.w3.org/1999/xlink" viewBox="0 0 260 200"><defs><style>.cls-1{fill:url(#linear-gradient);}.cls-2{fill:#c3dcf9;}.cls-3{fill:#cae0fa;}.cls-4{fill:#75dea3;}.cls-5{fill:#95c1f5;}.cls-6{fill:#2159aa;}.cls-7{fill:#fe4c64;}.cls-8{fill:#f9d85f;}.cls-9{fill:#64da98;}.cls-10{fill:#deecfc;}.cls-11{fill:#a6cbf6;}.cls-12{fill:#b2eccb;}.cls-13{fill:#4e97ee;}.cls-14{fill:#fcebaf;}.cls-15{fill:#ecf4fd;}</style><linearGradient id="linear-gradient" x1="-859.685" y1="-82.215" x2="-1050.405" y2="-185.657" gradientTransform="matrix(0.542, -0.808, 0.768, 0.452, 775.987, -601.107)" gradientUnits="userSpaceOnUse"><stop offset="0" stop-color="#cfedf9"/><stop offset="0.324" stop-color="#d5eff9"/><stop offset="0.775" stop-color="#e7f6fc"/><stop offset="1" stop-color="#f3fafd"/></linearGradient></defs><path class="cls-1" d="M251.427,95.309c-.375-18.223-7.318-44.5-22.954-56.428-5.867-4.475-12.732-7.333-19.631-9.675a54.92,54.92,0,0,0-14.836-3.313,104.9,104.9,0,0,0-48.436,9.019,148.985,148.985,0,0,0-37.746,23.807C94.078,70.62,81.572,81.913,64.908,89.65c-14.185,6.586-28,13.335-34.538,28.565-6.638,15.459-3.459,34.826,6.753,49.181,3.625,5.1,10.782,9.626,16.253,12.435,14.778,7.587,32.242,4.076,46.85-2.2s28.2-15.186,43.9-18.395c25.467-5.205,54.4,5,77.588-6.195C242.146,143.169,251.907,118.672,251.427,95.309Z"/><rect class="cls-2" x="21.563" y="28.234" width="61.906" height="48.862"/><path class="cls-3" d="M114.589,30.273,9.808,29.481v96.95a3.182,3.182,0,0,0,3.182,3.182h98.287a3.183,3.183,0,0,0,3.183-3.182Z"/><rect class="cls-4" x="15.206" y="37.415" width="93.25" height="39.449"/><rect class="cls-5" x="15.206" y="82.44" width="93.25" height="39.449"/><path class="cls-6" d="M12.99,22.779h98.287a3.182,3.182,0,0,1,3.182,3.182v4.461a0,0,0,0,1,0,0H9.808a0,0,0,0,1,0,0V25.961A3.182,3.182,0,0,1,12.99,22.779Z"/><circle class="cls-7" cx="16.686" cy="26.558" r="1.143"/><circle class="cls-8" cx="21.674" cy="26.558" r="1.143"/><circle class="cls-9" cx="26.661" cy="26.558" r="1.143"/><rect class="cls-2" x="72.979" y="58.312" width="61.906" height="48.862"/><path class="cls-10" d="M166.005,60.351,61.224,59.559v96.95a3.182,3.182,0,0,0,3.182,3.182h98.287a3.183,3.183,0,0,0,3.183-3.182Z"/><path class="cls-6" d="M64.406,52.857h98.287a3.182,3.182,0,0,1,3.182,3.182V60.5a0,0,0,0,1,0,0H61.224a0,0,0,0,1,0,0V56.039A3.182,3.182,0,0,1,64.406,52.857Z"/><circle class="cls-7" cx="68.102" cy="56.636" r="1.143"/><circle class="cls-8" cx="73.089" cy="56.636" r="1.143"/><circle class="cls-9" cx="78.077" cy="56.636" r="1.143"/><rect class="cls-11" x="71.048" y="74.495" width="38.077" height="1.53" rx="0.686"/><rect class="cls-11" x="71.048" y="83.755" width="38.077" height="1.53" rx="0.686"/><rect class="cls-11" x="71.048" y="93.015" width="38.077" height="1.53" rx="0.686"/><rect class="cls-11" x="117.976" y="74.495" width="38.077" height="1.53" rx="0.686"/><rect class="cls-11" x="117.976" y="83.755" width="38.077" height="1.53" rx="0.686"/><rect class="cls-11" x="117.976" y="93.015" width="38.077" height="1.53" rx="0.686"/><rect class="cls-12" x="69.914" y="101.883" width="18.203" height="18.203"/><rect class="cls-11" x="94.001" y="101.883" width="18.203" height="18.203"/><rect class="cls-13" x="117.996" y="101.883" width="18.203" height="18.203"/><rect class="cls-11" x="69.914" y="125.945" width="18.203" height="18.203"/><rect class="cls-14" x="94.001" y="125.945" width="18.203" height="18.203"/><rect class="cls-11" x="117.996" y="125.945" width="18.203" height="18.203"/><rect class="cls-2" x="140.955" y="88.39" width="61.906" height="48.862"/><path class="cls-15" d="M233.981,90.429,129.2,89.637v96.95a3.182,3.182,0,0,0,3.182,3.182h98.287a3.183,3.183,0,0,0,3.183-3.182Z"/><rect class="cls-5" x="134.598" y="101.988" width="93.25" height="59.603"/><path class="cls-6" d="M132.382,82.935h98.287a3.182,3.182,0,0,1,3.182,3.182v4.461a0,0,0,0,1,0,0H129.2a0,0,0,0,1,0,0V86.117A3.182,3.182,0,0,1,132.382,82.935Z"/><circle class="cls-7" cx="136.078" cy="86.714" r="1.143"/><circle class="cls-8" cx="141.066" cy="86.714" r="1.143"/><circle class="cls-9" cx="146.053" cy="86.714" r="1.143"/><rect class="cls-11" x="136.816" y="168.476" width="38.077" height="1.53" rx="0.686"/><rect class="cls-11" x="136.816" y="177.736" width="38.077" height="1.53" rx="0.686"/><rect class="cls-11" x="189.265" y="168.476" width="38.077" height="1.53" rx="0.686"/><rect class="cls-11" x="189.265" y="177.736" width="38.077" height="1.53" rx="0.686"/><path class="cls-11" d="M227.849,161.59c-.095.346-.095-55.119-.095-55.119-.576,8.425-7.482,36.913-40,23.52-7.765-3.2-17.329-7.311-25.51-6.717a24.345,24.345,0,0,0-19.378,11.488,24.907,24.907,0,0,0-3.557,13c-.01,1.755,1.153,13.828,3.212,13.828Z"/></svg>